<svg xmlns="http://www.w3.org/2000/svg" viewBox="0 0 128 128"><defs><style>.cls-1{fill:#1a1a1a;}.cls-2{opacity:0;}.cls-3{fill:#c62d43;}.cls-4{fill:#e62e49;}.cls-5{fill:#cef;}.cls-6{fill:#fff;}.cls-7{fill:#a72d3e;}</style></defs><title>shield-ruby-8</title><g id="Layer_2" data-name="Layer 2"><g id="Shield"><path class="cls-1" d="M64,108.5a5.67,5.67,0,0,1-4-1.66L47.26,94.11a5.93,5.93,0,0,1-1.76-4.24V80.56c-.2-.29-.39-.6-.59-.93l-8.36-3.45a5,5,0,0,1-2.95-3.42l-1.49-6-1.95-.81a5,5,0,0,1-2.95-3.42L21.87,40.93a3,3,0,0,1,.55-2.57,3,3,0,0,1,2.36-1.15,3,3,0,0,1,1.14.22l11.94,4.92-.5-1.86a3,3,0,0,1,2.9-3.77l.37,0,8.65,1,.21,0,11.82-2.76a3.4,3.4,0,0,1,5.38,0l11.82,2.76.2,0,8.66-1,.37,0a3,3,0,0,1,2.9,3.77l-.5,1.86,11.94-4.92a3,3,0,0,1,1.14-.22,3,3,0,0,1,2.36,1.15,3,3,0,0,1,.55,2.57l-5.34,21.58a5,5,0,0,1-3,3.42l-2,.81-1.49,6a5,5,0,0,1-3,3.42L83,79.66c-.17.28-.35.55-.52.81v9.4a5.93,5.93,0,0,1-1.76,4.24L68,106.84A5.67,5.67,0,0,1,64,108.5Z"/><path class="cls-1" d="M64,35.75a1.35,1.35,0,0,1,1.35,1.06v0l.47.08,12.78,3a.9.9,0,0,1,.36-.12l8.66-1.06h.12a1,1,0,0,1,1,1.26l-1.53,5.76,15.67-6.46a1.06,1.06,0,0,1,.38-.07,1,1,0,0,1,1,1.24L98.85,62a3,3,0,0,1-1.77,2l-2.89,1.19-1.73,7a3,3,0,0,1-1.77,2l-9,3.73c-.38.62-.76,1.22-1.16,1.79v10a4,4,0,0,1-1.17,2.83L72,100l-5.4,5.39a3.67,3.67,0,0,1-5.2,0L56,100,48.67,92.7a4,4,0,0,1-1.17-2.83V80c-.42-.61-.83-1.25-1.22-1.92l-9-3.7a3,3,0,0,1-1.77-2l-1.73-7-2.89-1.19a3,3,0,0,1-1.77-2L23.81,40.45a1,1,0,0,1,1-1.24,1.06,1.06,0,0,1,.38.07l15.67,6.46L39.3,40a1,1,0,0,1,1-1.26h.12L49,39.79a.9.9,0,0,1,.36.12l12.78-3,.47-.08v0A1.35,1.35,0,0,1,64,35.75m0-4a5.37,5.37,0,0,0-3.76,1.52L49.4,35.8l-8.53-1c-.2,0-.41,0-.61,0a4.94,4.94,0,0,0-4,2,5,5,0,0,0-1,2.45l-8.6-3.55a5,5,0,0,0-5.85,1.55,5,5,0,0,0-.91,4.28L25.27,63a7,7,0,0,0,4.13,4.79l1,.42,1.25,5A7,7,0,0,0,35.79,78l7.71,3.18v8.66a7.94,7.94,0,0,0,2.34,5.65l7.33,7.33,5.4,5.4a7.68,7.68,0,0,0,10.86,0l5.4-5.4,7.33-7.32a8,8,0,0,0,2.34-5.66V81.21L92.21,78a7,7,0,0,0,4.13-4.79l1.25-5,1-.42A7,7,0,0,0,102.73,63l5.34-21.58a5,5,0,0,0-4.85-6.2,5,5,0,0,0-1.91.37l-8.6,3.55a5,5,0,0,0-1-2.45,4.94,4.94,0,0,0-4-2c-.2,0-.41,0-.61,0l-8.53,1L67.76,33.27A5.34,5.34,0,0,0,64,31.75Z"/><g class="cls-2"><rect class="cls-1" width="128" height="128"/></g><path class="cls-3" d="M47.5,75V89.87a4,4,0,0,0,1.17,2.83L61.4,105.42a3.67,3.67,0,0,0,5.2,0L79.33,92.7a4,4,0,0,0,1.17-2.83V75Z"/><path class="cls-4" d="M72,75H56v25l5.4,5.39a3.67,3.67,0,0,0,5.2,0L72,100Z"/><path class="cls-5" d="M51,62.08,31,53.86l4.56,18.42a3,3,0,0,0,1.77,2L51,80Z"/><path class="cls-5" d="M97,53.86l-20,8.22V80l13.64-5.62a3,3,0,0,0,1.77-2Z"/><path class="cls-6" d="M48.38,48.85,25.16,39.28a1,1,0,0,0-1.35,1.17L29.15,62a3,3,0,0,0,1.77,2l17.46,7.2Z"/><path class="cls-6" d="M102.84,39.28,79.62,48.85V71.28l17.46-7.2a3,3,0,0,0,1.77-2l5.34-21.58A1,1,0,0,0,102.84,39.28Z"/><path class="cls-7" d="M62.18,36.92,43.94,41.18a3,3,0,0,0-2.32,2.93v15c0,24.88,17.91,31.22,22.26,32.4,4.4-1.18,22.5-7.52,22.5-32.4v-15a3,3,0,0,0-2.32-2.93L65.82,36.92A8.28,8.28,0,0,0,62.18,36.92Z"/><path class="cls-4" d="M62.18,36.92,43.94,41.18a3,3,0,0,0-2.32,2.93V54.38c0,24.87,17.91,31.22,22.26,32.39,4.4-1.17,22.5-7.52,22.5-32.39V44.11a3,3,0,0,0-2.32-2.93L65.82,36.92A8.28,8.28,0,0,0,62.18,36.92Z"/><path class="cls-3" d="M63.89,79.43c-5.16-1.93-15.27-7.9-15.27-25.05v-7.1L64,43.69l15.38,3.59v7.1C79.38,71.53,69.12,77.51,63.89,79.43Z"/><path class="cls-6" d="M88.7,40l-2.24,8.43a1,1,0,0,1-1.22.71h0a9.69,9.69,0,0,1-7.15-8.22h0A1,1,0,0,1,79,39.79l8.66-1.06A1,1,0,0,1,88.7,40Z"/><path class="cls-6" d="M39.3,40l2.24,8.43a1,1,0,0,0,1.22.71h0a9.69,9.69,0,0,0,7.15-8.22h0A1,1,0,0,0,49,39.79l-8.66-1.06A1,1,0,0,0,39.3,40Z"/><path class="cls-7" d="M86.91,55.44l-18.3-4.62-3.26-14a1.39,1.39,0,0,0-2.7,0l-3.26,14-18.3,4.62a1,1,0,0,0,0,2L59.39,61,63,87.36a1,1,0,0,0,2,0L68.61,61l18.3-3.62A1,1,0,0,0,86.91,55.44Z"/></g></g></svg>