<svg xmlns="http://www.w3.org/2000/svg" viewBox="0 0 128 128"><defs><style>.cls-1{fill:#1a1a1a;}.cls-2{fill:#fff;}.cls-3{fill:#cef;}.cls-4{fill:#96dbff;}.cls-5{opacity:0;}.cls-6{fill:#fc9504;}.cls-7{fill:#fec92b;}.cls-8{fill:#0049c7;}.cls-9{fill:#1778ff;}.cls-10{fill:#37b9ff;}.cls-11{fill:#a72d3e;}.cls-12{fill:#e62e49;}.cls-13{fill:#c62d43;}</style></defs><title>shield-master-11</title><g id="Layer_2" data-name="Layer 2"><g id="Shield"><path class="cls-1" d="M64,118.84a5,5,0,0,1-3.54-1.46l-8.74-8.74A6,6,0,0,1,50,104.39V96.82l-2.71-2.71a5.93,5.93,0,0,1-1.76-4.24V87.06L40,92.18h0a4.07,4.07,0,0,1,3.08,1.37l3.11,3.57A3,3,0,0,1,44.73,102L33,105.06a4,4,0,0,1-4.69-2.28,33.89,33.89,0,0,0-2.16-4.24l-1.84,1.6a4,4,0,0,1-.15,4.51l-3.68,5a3,3,0,0,1-4.68.19L5.22,97.71a3,3,0,0,1,.85-4.61l5.48-2.95a4,4,0,0,1,4.49.48L17.88,89A34.72,34.72,0,0,0,14,86.31a4,4,0,0,1-1.61-5L17,70.15a3,3,0,0,1,5-.82l3.1,3.57a4.08,4.08,0,0,1,.93,3.27l7-5.62-1-4L26,64a5.38,5.38,0,0,1-3.16-3.68l-6-24.27a3.09,3.09,0,0,1,.57-2.67,3.16,3.16,0,0,1,2.46-1.2,3.23,3.23,0,0,1,1.19.23l5.3,2.19L14.31,23.35a4,4,0,0,1-1.25-2.63l-.3-4.24a4,4,0,0,1,3.71-4.27l4.24-.3H21a4,4,0,0,1,2.49.87L53.36,36.93l8-1.86a3.39,3.39,0,0,1,5.37,0l8,1.86,29.87-24.15a4,4,0,0,1,2.5-.88h.28l4.24.3a4,4,0,0,1,3.71,4.27l-.3,4.24a4,4,0,0,1-1.23,2.62l-12.1,11.3,5.3-2.19a3.23,3.23,0,0,1,1.19-.23,3.16,3.16,0,0,1,2.46,1.2,3.09,3.09,0,0,1,.57,2.67l-6,24.27A5.42,5.42,0,0,1,102,64l-6,2.47-1,4,7,5.62a4,4,0,0,1,.93-3.26l3.1-3.58a3,3,0,0,1,5,.82l4.67,11.19a4,4,0,0,1-1.61,5,34.72,34.72,0,0,0-3.9,2.72l1.84,1.6a4,4,0,0,1,2.6-.95,3.9,3.9,0,0,1,1.89.48l5.48,2.94a3,3,0,0,1,.85,4.61l-10.57,12.16a3,3,0,0,1-2.26,1h0a3,3,0,0,1-2.42-1.23l-3.68-5a4,4,0,0,1-.15-4.51l-1.84-1.6a33.89,33.89,0,0,0-2.16,4.24A4,4,0,0,1,95,105.06L83.27,102a3,3,0,0,1-1.51-4.87l3.11-3.57A4.07,4.07,0,0,1,88,92.18h0L82.5,87.06v2.81a5.93,5.93,0,0,1-1.76,4.24L78,96.82v7.57a6,6,0,0,1-1.75,4.25l-8.74,8.74A5,5,0,0,1,64,118.84Z"/><path class="cls-1" d="M107,13.9h.14l4.24.29a2,2,0,0,1,1.85,2.14L113,20.58a2,2,0,0,1-.62,1.31L92.23,40.66l15.44-6.36a1.09,1.09,0,0,1,.43-.08,1.13,1.13,0,0,1,1.09,1.39l-6,24.27a3.35,3.35,0,0,1-2,2.31l-6.94,2.86L92.7,71.31l11.21,9.07a14.44,14.44,0,0,0,0-4.45,2,2,0,0,1,.45-1.71l3.1-3.57a1,1,0,0,1,.75-.35,1,1,0,0,1,.93.62l4.67,11.19a2,2,0,0,1-.78,2.48A37.6,37.6,0,0,0,107.06,89l5.07,4.41.92-1.07a2,2,0,0,1,1.51-.68,1.92,1.92,0,0,1,1,.24L121,94.86a1,1,0,0,1,.28,1.54L110.7,108.55a1,1,0,0,1-1.56-.06l-3.68-5a2,2,0,0,1,.1-2.5l.93-1.06-5.07-4.4A36.47,36.47,0,0,0,97.86,102,2,2,0,0,1,96,103.19a2.37,2.37,0,0,1-.52-.06l-11.73-3.07a1,1,0,0,1-.51-1.63l3.11-3.57A2.06,2.06,0,0,1,88,94.18h.42a14.53,14.53,0,0,0,4-.59L80.5,82.45v7.42a4,4,0,0,1-1.17,2.83L76,96v8.4a4,4,0,0,1-1.17,2.83L66.12,116a3,3,0,0,1-4.24,0l-8.74-8.74A4,4,0,0,1,52,104.39V96l-3.3-3.29a4,4,0,0,1-1.17-2.83V82.45L35.58,93.59a14.53,14.53,0,0,0,4.05.59h.42a2.06,2.06,0,0,1,1.57.68l3.11,3.57a1,1,0,0,1-.51,1.63l-11.73,3.07a2.37,2.37,0,0,1-.52.06A2,2,0,0,1,30.14,102a36.47,36.47,0,0,0-3.56-6.49l-5.07,4.4.93,1.06a2,2,0,0,1,.1,2.5l-3.68,5a1,1,0,0,1-1.56.06L6.73,96.4A1,1,0,0,1,7,94.86l5.48-2.94a1.92,1.92,0,0,1,.95-.24,2,2,0,0,1,1.51.68l.92,1.07L20.94,89A37.6,37.6,0,0,0,15,84.59a2,2,0,0,1-.78-2.48l4.67-11.19a1,1,0,0,1,.93-.62,1,1,0,0,1,.75.35l3.1,3.57a2,2,0,0,1,.45,1.71,14.44,14.44,0,0,0,0,4.45L35.3,71.31l-1.55-6.26-6.94-2.86a3.35,3.35,0,0,1-2-2.31l-6-24.27a1.13,1.13,0,0,1,1.09-1.39,1.09,1.09,0,0,1,.43.08l15.44,6.36L15.67,21.89a2,2,0,0,1-.62-1.31l-.29-4.24a2,2,0,0,1,1.85-2.14l4.24-.29H21a2,2,0,0,1,1.25.44L52.86,39.1l9.32-2.18.47-.08v0a1.39,1.39,0,0,1,2.7,0v0l.47.08,9.32,2.18,30.62-24.76A2,2,0,0,1,107,13.9m0-4a6,6,0,0,0-3.73,1.31L74.14,34.76l-6.38-1.49a5.41,5.41,0,0,0-7.52,0l-6.38,1.49L24.75,11.23A6.05,6.05,0,0,0,21,9.9l-.42,0-4.24.29a6,6,0,0,0-5.56,6.41l.29,4.24a6,6,0,0,0,1.86,3.93l5.93,5.54a5.17,5.17,0,0,0-3,1.86,5.09,5.09,0,0,0-.93,4.38l6,24.27a7.39,7.39,0,0,0,4.35,5L30.36,68l.45,1.82-3.43,2.77a6,6,0,0,0-.69-1L23.59,68a5,5,0,0,0-8.39,1.36L10.53,80.57a6,6,0,0,0,2,7.18,6,6,0,0,0-1.93.64l-5.48,3A5,5,0,0,0,3.71,99l10.57,12.15a5,5,0,0,0,7.8-.32l3.69-5a6.34,6.34,0,0,0,.91-1.82A5.94,5.94,0,0,0,32,107.19,6.05,6.05,0,0,0,33.5,107l11.74-3.07A5,5,0,0,0,48,102.1v2.29a8,8,0,0,0,2.34,5.66l8.74,8.74a7,7,0,0,0,9.9,0l8.74-8.74A8,8,0,0,0,80,104.39V102.1a5,5,0,0,0,2.73,1.83L94.5,107a6.05,6.05,0,0,0,1.53.19,5.94,5.94,0,0,0,5.29-3.17,6.34,6.34,0,0,0,.91,1.82l3.69,5a5,5,0,0,0,7.8.33L124.29,99a5,5,0,0,0-1.41-7.69l-5.48-3a6,6,0,0,0-1.93-.64,6,6,0,0,0,2-7.18L112.8,69.38A5,5,0,0,0,104.41,68l-3.1,3.57a5.43,5.43,0,0,0-.69,1L97.19,69.8,97.64,68l5.08-2.1a7.39,7.39,0,0,0,4.35-5l6-24.27a5.1,5.1,0,0,0-.93-4.38,5.22,5.22,0,0,0-3-1.86l5.91-5.52a6.07,6.07,0,0,0,1.88-3.95l.29-4.24a6,6,0,0,0-5.57-6.41l-4.23-.29-.42,0Z"/><path class="cls-2" d="M111.39,14.2l-4.24-.29a2,2,0,0,0-1.39.43L19.47,84.11l5.89,6.77,87.4-76A2,2,0,0,0,111.39,14.2Z"/><path class="cls-3" d="M112.76,14.89l-87.4,76,5.88,6.76,81.09-75.75a2,2,0,0,0,.62-1.31l.29-4.24A2,2,0,0,0,112.76,14.89Z"/><path class="cls-3" d="M14.76,16.34l.29,4.24a2,2,0,0,0,.62,1.31L96.76,97.64l5.88-6.76-87.4-76A2,2,0,0,0,14.76,16.34Z"/><path class="cls-2" d="M22.24,14.34a2,2,0,0,0-1.39-.43l-4.24.29a2,2,0,0,0-1.37.69l87.4,76,5.89-6.77Z"/><rect class="cls-4" x="15.42" y="89.31" width="8.6" height="12.94" transform="translate(79.06 18.05) rotate(48.99)"/><path class="cls-2" d="M44.22,100.06l-11.73,3.07A2,2,0,0,1,30.14,102,36.89,36.89,0,0,0,15,84.59a2,2,0,0,1-.78-2.48l4.67-11.19a1,1,0,0,1,1.68-.27l3.1,3.57a2,2,0,0,1,.45,1.71,14.34,14.34,0,0,0,3.33,11.78l1.34,1.54A14.37,14.37,0,0,0,40,94.18a2.05,2.05,0,0,1,1.63.68l3.11,3.57A1,1,0,0,1,44.22,100.06Z"/><path class="cls-2" d="M7,94.86l5.48-2.94a2,2,0,0,1,2.46.44L22.44,101a2,2,0,0,1,.1,2.5l-3.68,5a1,1,0,0,1-1.56.06L6.73,96.4A1,1,0,0,1,7,94.86Z"/><rect class="cls-4" x="103.98" y="89.31" width="8.6" height="12.94" transform="translate(251.6 76.91) rotate(131.01)"/><path class="cls-2" d="M83.78,100.06l11.73,3.07A2,2,0,0,0,97.86,102,36.89,36.89,0,0,1,113,84.59a2,2,0,0,0,.78-2.48l-4.67-11.19a1,1,0,0,0-1.68-.27l-3.1,3.57a2,2,0,0,0-.45,1.71,14.34,14.34,0,0,1-3.33,11.78l-1.34,1.54A14.37,14.37,0,0,1,88,94.18a2.05,2.05,0,0,0-1.63.68l-3.11,3.57A1,1,0,0,0,83.78,100.06Z"/><path class="cls-2" d="M121,94.86l-5.48-2.94a2,2,0,0,0-2.46.44L105.56,101a2,2,0,0,0-.1,2.5l3.68,5a1,1,0,0,0,1.56.06L121.27,96.4A1,1,0,0,0,121,94.86Z"/><g class="cls-5"><rect class="cls-1" width="128" height="128"/></g><path class="cls-6" d="M51,62.08,31,53.86l4.56,18.42a3,3,0,0,0,1.77,2L51,80Z"/><path class="cls-6" d="M97,53.86l-20,8.22V80l13.64-5.62a3,3,0,0,0,1.77-2Z"/><path class="cls-7" d="M46.44,45.06,20.33,34.3a1.13,1.13,0,0,0-1.52,1.31l6,24.27a3.35,3.35,0,0,0,2,2.31l19.63,8.09Z"/><path class="cls-7" d="M107.67,34.3,81.56,45.06V70.28l19.63-8.09a3.35,3.35,0,0,0,2-2.31l6-24.27A1.13,1.13,0,0,0,107.67,34.3Z"/><path class="cls-8" d="M52,94v10.39a4,4,0,0,0,1.17,2.83L61.88,116a3,3,0,0,0,4.24,0l8.74-8.74A4,4,0,0,0,76,104.39V94Z"/><path class="cls-9" d="M47.5,75V89.87a4,4,0,0,0,1.17,2.83L61.4,105.42a3.67,3.67,0,0,0,5.2,0L79.33,92.7a4,4,0,0,0,1.17-2.83V75Z"/><path class="cls-10" d="M72,75H56v25l5.4,5.39a3.67,3.67,0,0,0,5.2,0L72,100Z"/><path class="cls-11" d="M62.18,36.92,43.94,41.18a3,3,0,0,0-2.32,2.93v15c0,24.88,17.91,31.22,22.26,32.4,4.4-1.18,22.5-7.52,22.5-32.4v-15a3,3,0,0,0-2.32-2.93L65.82,36.92A8.28,8.28,0,0,0,62.18,36.92Z"/><path class="cls-12" d="M62.18,36.92,43.94,41.18a3,3,0,0,0-2.32,2.93V54.38c0,24.87,17.91,31.22,22.26,32.39,4.4-1.17,22.5-7.52,22.5-32.39V44.11a3,3,0,0,0-2.32-2.93L65.82,36.92A8.28,8.28,0,0,0,62.18,36.92Z"/><path class="cls-13" d="M63.89,79.43c-5.16-1.93-15.27-7.9-15.27-25.05v-7.1L64,43.69l15.38,3.59v7.1C79.38,71.53,69.12,77.51,63.89,79.43Z"/><path class="cls-11" d="M88.7,40l-2.24,8.43a1,1,0,0,1-1.22.71h0a9.69,9.69,0,0,1-7.15-8.22h0A1,1,0,0,1,79,39.79l8.66-1.06A1,1,0,0,1,88.7,40Z"/><path class="cls-11" d="M39.3,40l2.24,8.43a1,1,0,0,0,1.22.71h0a9.69,9.69,0,0,0,7.15-8.22h0A1,1,0,0,0,49,39.79l-8.66-1.06A1,1,0,0,0,39.3,40Z"/><path class="cls-2" d="M86.91,55.44l-18.3-4.62-3.26-14a1.39,1.39,0,0,0-2.7,0l-3.26,14-18.3,4.62a1,1,0,0,0,0,2L59.39,61,63,87.36a1,1,0,0,0,2,0L68.61,61l18.3-3.62A1,1,0,0,0,86.91,55.44Z"/></g></g></svg>