<svg xmlns="http://www.w3.org/2000/svg" viewBox="0 0 128 128"><defs><style>.cls-1{opacity:0;}.cls-2{fill:#1a1a1a;}.cls-3{fill:#bafff3;}.cls-4{fill:#1251bd;}.cls-5{fill:#4783eb;}</style></defs><title>shield-sapphire-2</title><g id="Layer_2" data-name="Layer 2"><g id="Shield"><g class="cls-1"><rect class="cls-2" width="128" height="128"/></g><path class="cls-2" d="M63.89,93.38a4.87,4.87,0,0,1-1.51-.24,31.88,31.88,0,0,1-19.5-17.35l-9.83-4a5.05,5.05,0,0,1-2.95-3.43L23.57,41.93a3,3,0,0,1,2.91-3.72,3.05,3.05,0,0,1,1.15.22l12,5a5,5,0,0,1,3.82-4.16L61.73,35a9.68,9.68,0,0,1,4.54,0l18.24,4.26a5,5,0,0,1,3.82,4.16l12-5a3.05,3.05,0,0,1,1.15-.22,3,3,0,0,1,2.91,3.72L97.9,68.32a5,5,0,0,1-3,3.42l-9.87,4.07a32.1,32.1,0,0,1-19.7,17.34A5,5,0,0,1,63.89,93.38Z"/><path class="cls-2" d="M64,36.72a8.6,8.6,0,0,1,1.82.2l18.24,4.26a3,3,0,0,1,2.32,2.93v2.25l14.76-6.08a1,1,0,0,1,.38-.07,1,1,0,0,1,1,1.24L96,67.84a3,3,0,0,1-1.77,2.06L83.57,74.27a30,30,0,0,1-18.78,17,3.11,3.11,0,0,1-.9.13,2.89,2.89,0,0,1-.92-.14,29.77,29.77,0,0,1-18.57-17L33.81,69.9A3,3,0,0,1,32,67.84L25.51,41.45a1,1,0,0,1,1-1.24,1,1,0,0,1,.38.07l14.76,6.08V44.11a3,3,0,0,1,2.32-2.93l18.24-4.26a8.6,8.6,0,0,1,1.82-.2m0-4a11.91,11.91,0,0,0-2.73.31L43,37.29a7,7,0,0,0-4.55,3.45L28.39,36.58a5,5,0,0,0-6.76,5.83L28.16,68.8a7,7,0,0,0,4.13,4.79l9.1,3.75A33.89,33.89,0,0,0,61.78,95.05a6.83,6.83,0,0,0,2.11.32A7.1,7.1,0,0,0,66,95.06a34.15,34.15,0,0,0,20.58-17.7l9.15-3.77a7,7,0,0,0,4.13-4.79l6.53-26.39a5,5,0,0,0-.91-4.28,5,5,0,0,0-5.85-1.55L89.52,40.74A7,7,0,0,0,85,37.29L66.73,33A11.91,11.91,0,0,0,64,32.72Z"/><path class="cls-3" d="M52.44,50.82,26.86,40.28a1,1,0,0,0-1.35,1.17L32,67.84a3,3,0,0,0,1.77,2.06l15.58,6.41a4,4,0,0,0,5.52-3.69V54.52A4,4,0,0,0,52.44,50.82Z"/><path class="cls-3" d="M101.14,40.28,75.56,50.82a4,4,0,0,0-2.47,3.7v18.1a4,4,0,0,0,5.52,3.69L94.19,69.9A3,3,0,0,0,96,67.84l6.53-26.39A1,1,0,0,0,101.14,40.28Z"/><path class="cls-4" d="M62.18,36.92,43.94,41.18a3,3,0,0,0-2.32,2.93v15c0,23.4,15.85,30.41,21.35,32.13a3.05,3.05,0,0,0,1.82,0c5.56-1.73,21.59-8.73,21.59-32.14v-15a3,3,0,0,0-2.32-2.93L65.82,36.92A8.28,8.28,0,0,0,62.18,36.92Z"/><path class="cls-5" d="M62.18,36.92,43.94,41.18a3,3,0,0,0-2.32,2.93V54.38c0,24.87,17.91,31.22,22.26,32.39,4.4-1.17,22.5-7.52,22.5-32.39V44.11a3,3,0,0,0-2.32-2.93L65.82,36.92A8.28,8.28,0,0,0,62.18,36.92Z"/><path class="cls-4" d="M63.89,79.43c-5.16-1.93-15.27-7.9-15.27-25.05v-7.1L64,43.69l15.38,3.59v7.1C79.38,71.53,69.12,77.51,63.89,79.43Z"/></g></g></svg>