<svg xmlns="http://www.w3.org/2000/svg" viewBox="0 0 128 128"><defs><style>.cls-1{fill:#1a1a1a;}.cls-2{opacity:0;}.cls-3{fill:#1778ff;}.cls-4{fill:#fff;}.cls-5{fill:#37b9ff;}.cls-6{fill:#fec92b;}.cls-7{fill:#a72d3e;}.cls-8{fill:#e62e49;}.cls-9{fill:#c62d43;}</style></defs><title>shield-master-10</title><g id="Layer_2" data-name="Layer 2"><g id="Shield"><path class="cls-1" d="M64,122.14A4,4,0,0,1,61.17,121l-3-3A4,4,0,0,1,57,115.31l-.53-12-9.21-9.21a5.93,5.93,0,0,1-1.76-4.24V80.56c-.2-.29-.39-.6-.59-.93l-8.36-3.45a5,5,0,0,1-2.95-3.42l-1.54-6.25L26,64a5.38,5.38,0,0,1-3.16-3.68l-6-24.27a3.09,3.09,0,0,1,.57-2.67,3.16,3.16,0,0,1,2.46-1.2,3.23,3.23,0,0,1,1.19.23l16.23,6.69a3.13,3.13,0,0,1,.56-1.25,3,3,0,0,1,2.38-1.17l.37,0,8.65,1,.21,0,4-.94-.05-1.23,0,0a4.06,4.06,0,0,1-3.13,1.51H45.59a3,3,0,0,1-2.69-4.33L48.29,22a4,4,0,0,1,3.58-2.24,3.9,3.9,0,0,1,1.22.2,34.61,34.61,0,0,0,4.61,1.18V18.67a4,4,0,0,1-3.31-3.08L53,9.52A3,3,0,0,1,56,5.86h16.1A3,3,0,0,1,75,9.52l-1.37,6.07a4,4,0,0,1-3.31,3.08v2.46A34.61,34.61,0,0,0,74.91,20a3.85,3.85,0,0,1,1.22-.2A4,4,0,0,1,79.71,22L85.1,32.87a3,3,0,0,1-2.69,4.33H77.68a4.06,4.06,0,0,1-3.13-1.51l0,0,0,1.23,4,.94.2,0,8.66-1,.37,0a3,3,0,0,1,2.38,1.17,3.13,3.13,0,0,1,.56,1.25l16.23-6.69a3.23,3.23,0,0,1,1.19-.23,3.16,3.16,0,0,1,2.46,1.2,3.09,3.09,0,0,1,.57,2.67l-6,24.27A5.42,5.42,0,0,1,102,64l-6,2.47L94.4,72.76a5,5,0,0,1-3,3.42L83,79.66c-.17.28-.35.55-.52.81v9.4a5.93,5.93,0,0,1-1.76,4.24l-9.21,9.21-.53,12A4,4,0,0,1,69.83,118l-3,3A4,4,0,0,1,64,122.14Z"/><path class="cls-1" d="M72.05,7.86a1,1,0,0,1,1,1.22l-1.37,6.07a2,2,0,0,1-2,1.56H68.3v6.74a37.22,37.22,0,0,0,7.24-1.6,1.7,1.7,0,0,1,.59-.1,2,2,0,0,1,1.79,1.13l5.39,10.87a1,1,0,0,1-.9,1.45H77.68a2.08,2.08,0,0,1-1.59-.78,14.28,14.28,0,0,0-3.38-3l-.31,7,6.2,1.45a.9.9,0,0,1,.36-.12l8.66-1.06h.12a1,1,0,0,1,1,1.26l-.63,2.4,19.6-8.08a1.09,1.09,0,0,1,.43-.08,1.13,1.13,0,0,1,1.09,1.39l-6,24.27a3.35,3.35,0,0,1-2,2.31l-6.94,2.86-1.79,7.23a3,3,0,0,1-1.77,2l-9,3.73c-.38.62-.76,1.22-1.16,1.79v10a4,4,0,0,1-1.17,2.83L72,100l-2.43,2.43L69,115.22a2,2,0,0,1-.58,1.33l-3,3a2,2,0,0,1-2.82,0l-3-3a2,2,0,0,1-.58-1.33l-.57-12.76L56,100,48.67,92.7a4,4,0,0,1-1.17-2.83V80c-.42-.61-.83-1.25-1.22-1.92l-9-3.7a3,3,0,0,1-1.77-2l-1.79-7.23-6.94-2.86a3.35,3.35,0,0,1-2-2.31l-6-24.27a1.13,1.13,0,0,1,1.09-1.39,1.09,1.09,0,0,1,.43.08l19.6,8.08L39.3,40a1,1,0,0,1,1-1.26h.12L49,39.79a.9.9,0,0,1,.36.12l6.2-1.45-.31-7a14.28,14.28,0,0,0-3.38,3,2.08,2.08,0,0,1-1.59.78H45.59a1,1,0,0,1-.9-1.45l5.39-10.87a2,2,0,0,1,1.79-1.13,1.7,1.7,0,0,1,.59.1,37.22,37.22,0,0,0,7.24,1.6V16.71H58.3a2,2,0,0,1-2-1.56L55,9.08a1,1,0,0,1,1-1.22h16.1m0-4H56A5,5,0,0,0,51.07,10L52.44,16a6.26,6.26,0,0,0,.77,1.88,5.94,5.94,0,0,0-6.72,3.2L41.11,32a5,5,0,0,0-.5,2.76l-.35,0a5,5,0,0,0-3.89,1.87l-14.51-6a5.12,5.12,0,0,0-6.93,6l6,24.27a7.39,7.39,0,0,0,4.35,5L30.36,68l1.3,5.26A7,7,0,0,0,35.79,78l7.71,3.18v8.66a8,8,0,0,0,2.34,5.66l7.33,7.32,1.34,1.34L55,115.4a6,6,0,0,0,1.75,4l3,3a6,6,0,0,0,8.48,0l3-3a6,6,0,0,0,1.75-4l.49-11.21,1.34-1.34,7.33-7.33a7.93,7.93,0,0,0,2.34-5.65V81.21L92.21,78a7,7,0,0,0,4.13-4.79L97.64,68l5.08-2.1a7.39,7.39,0,0,0,4.35-5l6-24.27a5.1,5.1,0,0,0-.93-4.38,5.13,5.13,0,0,0-6-1.58l-14.51,6a5,5,0,0,0-3.89-1.87l-.35,0a5,5,0,0,0-.5-2.76L81.51,21.11a5.94,5.94,0,0,0-6.72-3.2A6.26,6.26,0,0,0,75.56,16L76.93,10a5,5,0,0,0-4.88-6.1Z"/><g class="cls-2"><rect class="cls-1" width="128" height="128"/></g><rect class="cls-3" x="59.7" y="11.6" width="8.6" height="12.94"/><path class="cls-4" d="M55,25.54l4,89.68a2,2,0,0,0,.58,1.33l3,3a2,2,0,0,0,2.82,0l3-3a2,2,0,0,0,.58-1.33l4-89.68Z"/><path class="cls-5" d="M83.31,33.75,77.92,22.88a2,2,0,0,0-2.38-1,36.87,36.87,0,0,1-23.08,0,2,2,0,0,0-2.38,1L44.69,33.75a1,1,0,0,0,.9,1.45h4.73a2.08,2.08,0,0,0,1.59-.78A14.32,14.32,0,0,1,63,29.2h2a14.32,14.32,0,0,1,11.07,5.22,2.08,2.08,0,0,0,1.59.78h4.73A1,1,0,0,0,83.31,33.75Z"/><path class="cls-5" d="M55,9.08l1.37,6.07a2,2,0,0,0,2,1.56H69.7a2,2,0,0,0,2-1.56L73,9.08a1,1,0,0,0-1-1.22H56A1,1,0,0,0,55,9.08Z"/><path class="cls-6" d="M51,62.08,31,53.86l4.56,18.42a3,3,0,0,0,1.77,2L51,80Z"/><path class="cls-6" d="M97,53.86l-20,8.22V80l13.64-5.62a3,3,0,0,0,1.77-2Z"/><path class="cls-4" d="M46.44,45.06,20.33,34.3a1.13,1.13,0,0,0-1.52,1.31l6,24.27a3.35,3.35,0,0,0,2,2.31l19.63,8.09Z"/><path class="cls-4" d="M107.67,34.3,81.56,45.06V70.28l19.63-8.09a3.35,3.35,0,0,0,2-2.31l6-24.27A1.13,1.13,0,0,0,107.67,34.3Z"/><path class="cls-3" d="M47.5,75V89.87a4,4,0,0,0,1.17,2.83L61.4,105.42a3.67,3.67,0,0,0,5.2,0L79.33,92.7a4,4,0,0,0,1.17-2.83V75Z"/><path class="cls-5" d="M72,75H56v25l5.4,5.39a3.67,3.67,0,0,0,5.2,0L72,100Z"/><path class="cls-7" d="M62.18,36.92,43.94,41.18a3,3,0,0,0-2.32,2.93v15c0,24.88,17.91,31.22,22.26,32.4,4.4-1.18,22.5-7.52,22.5-32.4v-15a3,3,0,0,0-2.32-2.93L65.82,36.92A8.28,8.28,0,0,0,62.18,36.92Z"/><path class="cls-8" d="M62.18,36.92,43.94,41.18a3,3,0,0,0-2.32,2.93V54.38c0,24.87,17.91,31.22,22.26,32.39,4.4-1.17,22.5-7.52,22.5-32.39V44.11a3,3,0,0,0-2.32-2.93L65.82,36.92A8.28,8.28,0,0,0,62.18,36.92Z"/><path class="cls-9" d="M63.89,79.43c-5.16-1.93-15.27-7.9-15.27-25.05v-7.1L64,43.69l15.38,3.59v7.1C79.38,71.53,69.12,77.51,63.89,79.43Z"/><path class="cls-7" d="M88.7,40l-2.24,8.43a1,1,0,0,1-1.22.71h0a9.69,9.69,0,0,1-7.15-8.22h0A1,1,0,0,1,79,39.79l8.66-1.06A1,1,0,0,1,88.7,40Z"/><path class="cls-7" d="M39.3,40l2.24,8.43a1,1,0,0,0,1.22.71h0a9.69,9.69,0,0,0,7.15-8.22h0A1,1,0,0,0,49,39.79l-8.66-1.06A1,1,0,0,0,39.3,40Z"/><path class="cls-4" d="M86.91,55.44l-18.3-4.62-3.26-14a1.39,1.39,0,0,0-2.7,0l-3.26,14-18.3,4.62a1,1,0,0,0,0,2L59.39,61,63,87.36a1,1,0,0,0,2,0L68.61,61l18.3-3.62A1,1,0,0,0,86.91,55.44Z"/></g></g></svg>