<svg xmlns="http://www.w3.org/2000/svg" viewBox="0 0 128 128"><defs><style>.cls-1{opacity:0;}.cls-2{fill:#1a1a1a;}.cls-3{fill:#65d666;}.cls-4{fill:#009245;}.cls-5{fill:#882924;}.cls-6{fill:#b03628;}.cls-7{fill:#d16647;}.cls-8{fill:#eda379;}.cls-9{fill:#f7d8c6;}</style></defs><title>shield-wood-6</title><g id="Layer_2" data-name="Layer 2"><g id="Shield"><g class="cls-1"><rect class="cls-2" width="128" height="128"/></g><path class="cls-2" d="M65.09,108.5a5.67,5.67,0,0,1-4-1.66L48.35,94.11a5.93,5.93,0,0,1-1.76-4.24V80.56c-.19-.29-.39-.6-.59-.93l-8.36-3.45a5,5,0,0,1-3-3.42l-1.49-6-2-.8a5,5,0,0,1-2.95-3.42L23,40.93a3,3,0,0,1,2.91-3.72,3,3,0,0,1,1.14.22L39,42.35l-.5-1.86a3,3,0,0,1,2.9-3.77l.37,0,8.66,1,.2,0L62.82,35a10,10,0,0,1,4.54,0l12.25,2.85.2,0,8.65-1,.37,0a3,3,0,0,1,2.9,3.77l-.5,1.86,11.94-4.92a3,3,0,0,1,1.14-.22,3,3,0,0,1,2.37,1.15,3,3,0,0,1,.54,2.57l-5.34,21.58a5,5,0,0,1-2.95,3.42l-2,.8-1.49,6a5,5,0,0,1-2.95,3.42l-8.43,3.48c-.17.28-.35.55-.52.81v9.4a5.93,5.93,0,0,1-1.76,4.24L69.11,106.84A5.65,5.65,0,0,1,65.09,108.5Z"/><path class="cls-2" d="M65.09,36.72a8.6,8.6,0,0,1,1.82.2l12.78,3a.9.9,0,0,1,.36-.12l8.66-1.06h.12a1,1,0,0,1,1,1.26l-1.52,5.76,15.66-6.46a1.06,1.06,0,0,1,.38-.07,1,1,0,0,1,1,1.24L99.94,62a3,3,0,0,1-1.77,2l-2.89,1.19-1.73,7a3,3,0,0,1-1.77,2l-9,3.73c-.38.62-.76,1.22-1.16,1.79v10a4,4,0,0,1-1.17,2.83L67.69,105.42a3.67,3.67,0,0,1-5.2,0L49.76,92.7a4,4,0,0,1-1.17-2.83V80c-.42-.61-.83-1.25-1.22-1.92l-9-3.7a3,3,0,0,1-1.76-2l-1.74-7L32,64.08a3,3,0,0,1-1.77-2L24.9,40.45a1,1,0,0,1,1-1.24,1.06,1.06,0,0,1,.38.07l15.67,6.46L40.39,40a1,1,0,0,1,1-1.26h.13l8.65,1.06a.9.9,0,0,1,.36.12l12.78-3a8.6,8.6,0,0,1,1.82-.2m0-4a12,12,0,0,0-2.73.31L50.49,35.8l-8.53-1c-.2,0-.41,0-.61,0a4.94,4.94,0,0,0-4,2,4.89,4.89,0,0,0-1,2.45l-8.61-3.55a5,5,0,0,0-5.85,1.55A5,5,0,0,0,21,41.41L26.36,63a7,7,0,0,0,4.13,4.79l1,.42,1.25,5A7,7,0,0,0,36.88,78l7.71,3.18v8.66a7.94,7.94,0,0,0,2.34,5.65l12.73,12.73a7.68,7.68,0,0,0,10.86,0L83.25,95.53a8,8,0,0,0,2.34-5.66V81.21L93.3,78a7,7,0,0,0,4.13-4.79l1.25-5,1-.42A7,7,0,0,0,103.82,63l5.34-21.58a5,5,0,0,0-.91-4.28,5,5,0,0,0-5.84-1.55L93.8,39.13a5,5,0,0,0-1-2.45,4.94,4.94,0,0,0-4-2c-.2,0-.41,0-.61,0l-8.53,1L67.82,33a11.91,11.91,0,0,0-2.73-.31Z"/><path class="cls-3" d="M48.59,75V89.87a4,4,0,0,0,1.17,2.83l12.73,12.72a3.67,3.67,0,0,0,5.2,0L80.42,92.7a4,4,0,0,0,1.17-2.83V75Z"/><path class="cls-4" d="M73.09,75h-16v25l5.4,5.39a3.67,3.67,0,0,0,5.2,0l5.4-5.39Z"/><path class="cls-5" d="M52,62.08l-20-8.22,4.56,18.42a3,3,0,0,0,1.76,2L52,80Z"/><path class="cls-5" d="M98.11,53.86l-20,8.22V80l13.63-5.62a3,3,0,0,0,1.77-2Z"/><path class="cls-6" d="M49.47,48.85,26.25,39.28a1,1,0,0,0-1.35,1.17L30.24,62a3,3,0,0,0,1.77,2l17.46,7.2Z"/><path class="cls-6" d="M103.93,39.28,80.71,48.85V71.28l17.46-7.2a3,3,0,0,0,1.77-2l5.34-21.58A1,1,0,0,0,103.93,39.28Z"/><path class="cls-6" d="M63.27,36.92,45,41.18a3,3,0,0,0-2.32,2.93v15C42.71,84,60.62,90.32,65,91.5c4.4-1.18,22.5-7.52,22.5-32.4v-15a3,3,0,0,0-2.32-2.93L66.91,36.92A8.28,8.28,0,0,0,63.27,36.92Z"/><path class="cls-7" d="M63.27,36.92,45,41.18a3,3,0,0,0-2.32,2.93V54.38C42.71,79.25,60.62,85.6,65,86.77c4.4-1.17,22.5-7.52,22.5-32.39V44.11a3,3,0,0,0-2.32-2.93L66.91,36.92A8.28,8.28,0,0,0,63.27,36.92Z"/><path class="cls-8" d="M65,79.43c-5.17-1.93-15.28-7.9-15.28-25.05v-7.1l15.38-3.59,15.38,3.59v7.1C80.47,71.53,70.21,77.51,65,79.43Z"/><path class="cls-9" d="M64.26,92.37l-4.88-7.23a1,1,0,0,1,.26-1.38h0a9.68,9.68,0,0,1,10.9,0h0a1,1,0,0,1,.27,1.38l-4.89,7.23A1,1,0,0,1,64.26,92.37Z"/><path class="cls-9" d="M89.79,40l-2.23,8.43a1,1,0,0,1-1.22.71h0a9.68,9.68,0,0,1-7.16-8.22h0a1,1,0,0,1,.87-1.11l8.66-1.06A1,1,0,0,1,89.79,40Z"/><path class="cls-9" d="M40.39,40l2.24,8.43a1,1,0,0,0,1.22.71h0A9.69,9.69,0,0,0,51,40.9h0a1,1,0,0,0-.87-1.11l-8.65-1.06A1,1,0,0,0,40.39,40Z"/></g></g></svg>