<svg xmlns="http://www.w3.org/2000/svg" viewBox="0 0 128 128"><defs><style>.cls-1{opacity:0;}.cls-2{fill:#1a1a1a;}.cls-3{fill:#00cccf;}.cls-4{fill:#73f0e8;}.cls-5{fill:#fff;}.cls-6{fill:#b5fff1;}</style></defs><title>shield-platinum-3</title><g id="Layer_2" data-name="Layer 2"><g id="Shield"><g class="cls-1"><rect class="cls-2" width="128" height="128"/></g><path class="cls-2" d="M64,108.5a5.67,5.67,0,0,1-4-1.66L47.26,94.11a5.93,5.93,0,0,1-1.76-4.24V80.56a31.75,31.75,0,0,1-2.62-4.77l-9.83-4a5.05,5.05,0,0,1-2.95-3.43L23.57,41.93a3,3,0,0,1,2.91-3.72,3.05,3.05,0,0,1,1.15.22l12,5a5,5,0,0,1,3.82-4.16L61.73,35a10,10,0,0,1,4.54,0l18.24,4.26a5,5,0,0,1,3.82,4.16l12-5a3.05,3.05,0,0,1,1.15-.22,3,3,0,0,1,2.91,3.72L97.9,68.32a5,5,0,0,1-3,3.42l-9.87,4.07a31.37,31.37,0,0,1-2.58,4.66v9.4a5.93,5.93,0,0,1-1.76,4.24L68,106.84A5.67,5.67,0,0,1,64,108.5Z"/><path class="cls-2" d="M64,36.72a8.6,8.6,0,0,1,1.82.2l18.24,4.26a3,3,0,0,1,2.32,2.93v2.25l14.76-6.08a1,1,0,0,1,.38-.07,1,1,0,0,1,1,1.24L96,67.84a3,3,0,0,1-1.77,2.06L83.57,74.27a29.56,29.56,0,0,1-3.07,5.58v10a4,4,0,0,1-1.17,2.83L66.6,105.42a3.67,3.67,0,0,1-5.2,0L48.67,92.7a4,4,0,0,1-1.17-2.83V80a29.49,29.49,0,0,1-3.1-5.69L33.81,69.9A3,3,0,0,1,32,67.84L25.51,41.45a1,1,0,0,1,1-1.24,1,1,0,0,1,.38.07l14.76,6.08V44.11a3,3,0,0,1,2.32-2.93l18.24-4.26a8.6,8.6,0,0,1,1.82-.2m0-4a11.91,11.91,0,0,0-2.73.31L43,37.29a7,7,0,0,0-4.55,3.45L28.39,36.58a5,5,0,0,0-6.76,5.83L28.16,68.8a7,7,0,0,0,4.13,4.79l9.1,3.75a33.57,33.57,0,0,0,2.11,3.82v8.71a7.94,7.94,0,0,0,2.34,5.65l12.73,12.73a7.68,7.68,0,0,0,10.86,0L82.16,95.53a8,8,0,0,0,2.34-5.66v-8.8a32.56,32.56,0,0,0,2.06-3.71l9.15-3.77a7,7,0,0,0,4.13-4.79l6.53-26.39a5,5,0,0,0-.91-4.28,5,5,0,0,0-5.85-1.55L89.52,40.74A7,7,0,0,0,85,37.29L66.73,33A11.91,11.91,0,0,0,64,32.72Z"/><path class="cls-3" d="M47.5,75V89.87a4,4,0,0,0,1.17,2.83L61.4,105.42a3.67,3.67,0,0,0,5.2,0L79.33,92.7a4,4,0,0,0,1.17-2.83V75Z"/><path class="cls-4" d="M52.44,50.82,26.86,40.28a1,1,0,0,0-1.35,1.17L32,67.84a3,3,0,0,0,1.77,2.06l15.58,6.41a4,4,0,0,0,5.52-3.69V54.52A4,4,0,0,0,52.44,50.82Z"/><path class="cls-4" d="M101.14,40.28,75.56,50.82a4,4,0,0,0-2.47,3.7v18.1a4,4,0,0,0,5.52,3.69L94.19,69.9A3,3,0,0,0,96,67.84l6.53-26.39A1,1,0,0,0,101.14,40.28Z"/><path class="cls-4" d="M62.18,36.92,43.94,41.18a3,3,0,0,0-2.32,2.93v15c0,24.88,17.91,31.22,22.26,32.4,4.4-1.18,22.5-7.52,22.5-32.4v-15a3,3,0,0,0-2.32-2.93L65.82,36.92A8.28,8.28,0,0,0,62.18,36.92Z"/><path class="cls-5" d="M62.18,36.92,43.94,41.18a3,3,0,0,0-2.32,2.93V54.38c0,24.87,17.91,31.22,22.26,32.39,4.4-1.17,22.5-7.52,22.5-32.39V44.11a3,3,0,0,0-2.32-2.93L65.82,36.92A8.28,8.28,0,0,0,62.18,36.92Z"/><path class="cls-6" d="M63.89,79.43c-5.16-1.93-15.27-7.9-15.27-25.05v-7.1L64,43.69l15.38,3.59v7.1C79.38,71.53,69.12,77.51,63.89,79.43Z"/></g></g></svg>