<svg xmlns="http://www.w3.org/2000/svg" viewBox="0 0 128 128"><defs><style>.cls-1{fill:#1a1a1a;}.cls-2{opacity:0;}.cls-3{fill:#fff;}.cls-4{fill:#bafff3;}.cls-5{fill:#1251bd;}.cls-6{fill:#4783eb;}.cls-7{fill:#73f0d9;}.cls-8{fill:#fc9504;}.cls-9{fill:#fec92b;}.cls-10{fill:#fee854;}</style></defs><title>shield-sapphire-12</title><g id="Layer_2" data-name="Layer 2"><g id="Shield"><path class="cls-1" d="M64,122.84a5,5,0,0,1-3.54-1.46l-8.74-8.74A6,6,0,0,1,50,108.39V96.82l-2.71-2.71a5.93,5.93,0,0,1-1.76-4.24V87.06L40,92.18h0a4.07,4.07,0,0,1,3.08,1.37l3.11,3.57A3,3,0,0,1,44.73,102L33,105.06a4,4,0,0,1-4.69-2.28,33.89,33.89,0,0,0-2.16-4.24l-1.84,1.6a4,4,0,0,1-.15,4.51l-3.68,5a3,3,0,0,1-4.68.19L5.22,97.71a3,3,0,0,1,.85-4.61l5.48-2.95a4,4,0,0,1,4.49.48L17.88,89A34.72,34.72,0,0,0,14,86.31a4,4,0,0,1-1.61-5L17,70.15a3,3,0,0,1,5-.82l3.1,3.57a4.08,4.08,0,0,1,.93,3.27l5.07-4.1-1.62-6.55L21.2,62.09a6,6,0,0,1-3.45-3.73L10,34.05a2.93,2.93,0,0,1,.43-2.67,3,3,0,0,1,2.42-1.24,2.93,2.93,0,0,1,1.09.21l13.39,5.18-13-12.18a4,4,0,0,1-1.25-2.63l-.37-5.24a3,3,0,0,1,.73-2.18,3,3,0,0,1,2.06-1l5.23-.37H21a4,4,0,0,1,2.49.87L53.36,36.93l8-1.86a3.39,3.39,0,0,1,5.37,0l8,1.86,29.87-24.15a4,4,0,0,1,2.5-.88h.28l5.23.37a3,3,0,0,1,2.06,1,3,3,0,0,1,.73,2.18l-.37,5.24a4,4,0,0,1-1.23,2.62l-13,12.19,13.39-5.18a2.93,2.93,0,0,1,1.09-.21,3,3,0,0,1,2.42,1.24,2.93,2.93,0,0,1,.43,2.67l-7.74,24.31a6,6,0,0,1-3.45,3.73l-8.36,3.43-1.62,6.55,5.07,4.1a4,4,0,0,1,.93-3.26l3.1-3.58a3,3,0,0,1,5,.82l4.67,11.19a4,4,0,0,1-1.61,5,34.72,34.72,0,0,0-3.9,2.72l1.84,1.6a4,4,0,0,1,2.6-.95,3.9,3.9,0,0,1,1.89.48l5.48,2.94a3,3,0,0,1,.85,4.61l-10.57,12.16a3,3,0,0,1-2.26,1h0a3,3,0,0,1-2.42-1.23l-3.68-5a4,4,0,0,1-.15-4.51l-1.84-1.6a33.89,33.89,0,0,0-2.16,4.24A4,4,0,0,1,95,105.06L83.27,102a3,3,0,0,1-1.51-4.87l3.11-3.57A4.07,4.07,0,0,1,88,92.18h0L82.5,87.06v2.81a5.93,5.93,0,0,1-1.76,4.24L78,96.82v11.57a6,6,0,0,1-1.75,4.25l-8.74,8.74A5,5,0,0,1,64,122.84Z"/><path class="cls-1" d="M107,13.9h.14l5.23.36a1,1,0,0,1,.93,1.07L113,20.58a2,2,0,0,1-.62,1.31L91.74,41.12l23-8.91a1,1,0,0,1,1.32,1.24l-7.75,24.31a4,4,0,0,1-2.29,2.48l-9.31,3.82-2.17,8.76,9.34,7.56a14.44,14.44,0,0,0,0-4.45,2,2,0,0,1,.45-1.71l3.1-3.57a1,1,0,0,1,.75-.35,1,1,0,0,1,.93.62l4.67,11.19a2,2,0,0,1-.78,2.48A37.6,37.6,0,0,0,107.06,89l5.07,4.41.92-1.07a2,2,0,0,1,1.51-.68,1.92,1.92,0,0,1,1,.24L121,94.86a1,1,0,0,1,.28,1.54L110.7,108.55a1,1,0,0,1-1.56-.06l-3.68-5a2,2,0,0,1,.1-2.5l.93-1.06-5.07-4.4A36.47,36.47,0,0,0,97.86,102,2,2,0,0,1,96,103.19a2.37,2.37,0,0,1-.52-.06l-11.73-3.07a1,1,0,0,1-.51-1.63l3.11-3.57A2.06,2.06,0,0,1,88,94.18h.42a14.53,14.53,0,0,0,4-.59L80.5,82.45v7.42a4,4,0,0,1-1.17,2.83L76,96v12.4a4,4,0,0,1-1.17,2.83L66.12,120a3,3,0,0,1-4.24,0l-8.74-8.74A4,4,0,0,1,52,108.39V96l-3.3-3.29a4,4,0,0,1-1.17-2.83V82.45L35.58,93.59a14.53,14.53,0,0,0,4.05.59h.42a2.06,2.06,0,0,1,1.57.68l3.11,3.57a1,1,0,0,1-.51,1.63l-11.73,3.07a2.37,2.37,0,0,1-.52.06A2,2,0,0,1,30.14,102a36.47,36.47,0,0,0-3.56-6.49l-5.07,4.4.93,1.06a2,2,0,0,1,.1,2.5l-3.68,5a1,1,0,0,1-1.56.06L6.73,96.4A1,1,0,0,1,7,94.86l5.48-2.94a1.92,1.92,0,0,1,.95-.24,2,2,0,0,1,1.51.68l.92,1.07L20.94,89A37.6,37.6,0,0,0,15,84.59a2,2,0,0,1-.78-2.48l4.67-11.19a1,1,0,0,1,.93-.62,1,1,0,0,1,.75.35l3.1,3.57a2,2,0,0,1,.45,1.71,14.44,14.44,0,0,0,0,4.45l9.34-7.56-2.17-8.76L22,60.24a4,4,0,0,1-2.29-2.48L11.91,33.45a1,1,0,0,1,1.32-1.24l23,8.91L15.67,21.89a2,2,0,0,1-.62-1.31l-.36-5.24a1,1,0,0,1,.93-1.07l5.23-.36H21a2,2,0,0,1,1.25.44L52.86,39.1l9.32-2.18.47-.08v0a1.39,1.39,0,0,1,2.7,0v0l.47.08,9.32,2.18,30.62-24.76A2,2,0,0,1,107,13.9m0-4h0a6,6,0,0,0-3.73,1.31L74.14,34.76l-6.38-1.49a5.41,5.41,0,0,0-7.52,0l-6.38,1.49L24.75,11.23A6.05,6.05,0,0,0,21,9.9l-.42,0-5.23.36a5,5,0,0,0-4.64,5.34l.36,5.24a6,6,0,0,0,1.86,3.93l5.5,5.14-3.75-1.45a5.1,5.1,0,0,0-1.81-.34A5,5,0,0,0,8.1,34.66L15.85,59a8,8,0,0,0,4.59,5l7.43,3,1.07,4.32-1.56,1.26a6,6,0,0,0-.69-1L23.59,68a5,5,0,0,0-8.39,1.36L10.53,80.57a6,6,0,0,0,2,7.18,6,6,0,0,0-1.93.64l-5.48,3A5,5,0,0,0,3.71,99l10.57,12.15a5,5,0,0,0,7.8-.32l3.69-5a6.34,6.34,0,0,0,.91-1.82A5.94,5.94,0,0,0,32,107.19,6.05,6.05,0,0,0,33.5,107l11.74-3.07A5,5,0,0,0,48,102.1v6.29a8,8,0,0,0,2.34,5.66l8.74,8.74a7,7,0,0,0,9.9,0l8.74-8.74A8,8,0,0,0,80,108.39V102.1a5,5,0,0,0,2.73,1.83L94.5,107a6.05,6.05,0,0,0,1.53.19,5.94,5.94,0,0,0,5.29-3.17,6.34,6.34,0,0,0,.91,1.82l3.69,5a5,5,0,0,0,7.8.33L124.29,99a5,5,0,0,0-1.41-7.69l-5.48-3a6,6,0,0,0-1.93-.64,6,6,0,0,0,2-7.18L112.8,69.38A5,5,0,0,0,104.41,68l-3.1,3.57a5.43,5.43,0,0,0-.69,1l-1.56-1.26L100.13,67l7.43-3a8,8,0,0,0,4.59-5l7.75-24.31a5,5,0,0,0-4.76-6.52,5.1,5.1,0,0,0-1.81.34l-3.75,1.45,5.48-5.12a6.07,6.07,0,0,0,1.88-3.95l.36-5.24a5,5,0,0,0-4.64-5.34l-5.23-.36-.42,0Z"/><path class="cls-1" d="M64,27.09c-3.55,0-6.9-.13-9.43-.38-2.77-.27-5.64-.54-5.64-2.88,0-.07,0-.13,0-.19L50.06,11.4a2.8,2.8,0,0,1,4.72-1.79l2,1.93,4.93-6.68a2.79,2.79,0,0,1,4.5,0l4.93,6.68,2-1.93a2.8,2.8,0,0,1,4.72,1.82l1.12,12.21c0,.06,0,.12,0,.19,0,2.34-2.87,2.61-5.64,2.88C70.9,27,67.55,27.09,64,27.09Z"/><path class="cls-1" d="M64,5.72a.81.81,0,0,1,.65.33l6.27,8.49,3.68-3.48a.78.78,0,0,1,.54-.22.81.81,0,0,1,.81.74l1.12,12.25c0,.69-5.85,1.26-13.07,1.26s-13.07-.57-13.07-1.26l1.12-12.25a.81.81,0,0,1,.81-.74.78.78,0,0,1,.54.22l3.68,3.48,6.27-8.49A.81.81,0,0,1,64,5.72m0-4a4.81,4.81,0,0,0-3.86,2L56.55,8.53l-.4-.37a4.75,4.75,0,0,0-3.29-1.32,4.83,4.83,0,0,0-4.79,4.4L47,23.46c0,.12,0,.24,0,.37,0,4.15,4.66,4.6,7.45,4.87,2.59.25,6,.39,9.62.39s7-.14,9.62-.39c2.79-.27,7.45-.72,7.45-4.87,0-.13,0-.25,0-.37L79.93,11.24a4.83,4.83,0,0,0-4.79-4.4,4.75,4.75,0,0,0-3.29,1.32l-.4.37L67.86,3.67A4.81,4.81,0,0,0,64,1.72Z"/><g class="cls-2"><rect class="cls-1" width="128" height="128"/></g><path class="cls-3" d="M111.39,14.2l-4.24-.29a2,2,0,0,0-1.39.43L19.47,84.11l5.89,6.77,87.4-76A2,2,0,0,0,111.39,14.2Z"/><path class="cls-4" d="M112.76,14.89l-87.4,76,5.88,6.76,81.09-75.75a2,2,0,0,0,.62-1.31l.29-4.24A2,2,0,0,0,112.76,14.89Z"/><path class="cls-4" d="M14.76,16.34l.29,4.24a2,2,0,0,0,.62,1.31L96.76,97.64l5.88-6.76-87.4-76A2,2,0,0,0,14.76,16.34Z"/><path class="cls-3" d="M22.24,14.34a2,2,0,0,0-1.39-.43l-4.24.29a2,2,0,0,0-1.37.69l87.4,76,5.89-6.77Z"/><rect class="cls-5" x="15.42" y="89.31" width="8.6" height="12.94" transform="translate(79.06 18.05) rotate(48.99)"/><path class="cls-6" d="M44.22,100.06l-11.73,3.07A2,2,0,0,1,30.14,102,36.89,36.89,0,0,0,15,84.59a2,2,0,0,1-.78-2.48l4.67-11.19a1,1,0,0,1,1.68-.27l3.1,3.57a2,2,0,0,1,.45,1.71,14.34,14.34,0,0,0,3.33,11.78l1.34,1.54A14.37,14.37,0,0,0,40,94.18a2.05,2.05,0,0,1,1.63.68l3.11,3.57A1,1,0,0,1,44.22,100.06Z"/><path class="cls-6" d="M7,94.86l5.48-2.94a2,2,0,0,1,2.46.44L22.44,101a2,2,0,0,1,.1,2.5l-3.68,5a1,1,0,0,1-1.56.06L6.73,96.4A1,1,0,0,1,7,94.86Z"/><rect class="cls-5" x="103.98" y="89.31" width="8.6" height="12.94" transform="translate(251.6 76.91) rotate(131.01)"/><path class="cls-6" d="M83.78,100.06l11.73,3.07A2,2,0,0,0,97.86,102,36.89,36.89,0,0,1,113,84.59a2,2,0,0,0,.78-2.48l-4.67-11.19a1,1,0,0,0-1.68-.27l-3.1,3.57a2,2,0,0,0-.45,1.71,14.34,14.34,0,0,1-3.33,11.78l-1.34,1.54A14.37,14.37,0,0,1,88,94.18a2.05,2.05,0,0,0-1.63.68l-3.11,3.57A1,1,0,0,0,83.78,100.06Z"/><path class="cls-6" d="M121,94.86l-5.48-2.94a2,2,0,0,0-2.46.44L105.56,101a2,2,0,0,0-.1,2.5l3.68,5a1,1,0,0,0,1.56.06L121.27,96.4A1,1,0,0,0,121,94.86Z"/><path class="cls-7" d="M49,63.08,29,54.86l4.56,18.42a3,3,0,0,0,1.77,2L49,81Z"/><path class="cls-7" d="M99,54.86l-20,8.22V81l13.64-5.62a3,3,0,0,0,1.77-2Z"/><path class="cls-3" d="M11.91,33.45l7.75,24.31A4,4,0,0,0,22,60.24l24.49,10V45.06L13.23,32.21A1,1,0,0,0,11.91,33.45Z"/><path class="cls-3" d="M114.77,32.21,81.56,45.06V70.28l24.49-10a4,4,0,0,0,2.29-2.48l7.75-24.31A1,1,0,0,0,114.77,32.21Z"/><path class="cls-8" d="M52,88v20.39a4,4,0,0,0,1.17,2.83L61.88,120a3,3,0,0,0,4.24,0l8.74-8.74A4,4,0,0,0,76,108.39V88Z"/><path class="cls-9" d="M47.5,75V89.87a4,4,0,0,0,1.17,2.83L61.4,105.42a3.67,3.67,0,0,0,5.2,0L79.33,92.7a4,4,0,0,0,1.17-2.83V75Z"/><path class="cls-10" d="M72,75H56v25l5.4,5.39a3.67,3.67,0,0,0,5.2,0L72,100Z"/><path class="cls-5" d="M62.18,36.92,43.94,41.18a3,3,0,0,0-2.32,2.93v15c0,24.88,17.91,31.22,22.26,32.4,4.4-1.18,22.5-7.52,22.5-32.4v-15a3,3,0,0,0-2.32-2.93L65.82,36.92A8.28,8.28,0,0,0,62.18,36.92Z"/><path class="cls-9" d="M76,11.58a.8.8,0,0,0-1.35-.52l-3.68,3.48L64.65,6.05a.81.81,0,0,0-1.3,0l-6.27,8.49L53.4,11.06a.8.8,0,0,0-1.35.52L50.93,23.83H77.07Z"/><path class="cls-6" d="M62.18,36.92,43.94,41.18a3,3,0,0,0-2.32,2.93V54.38c0,24.87,17.91,31.22,22.26,32.39,4.4-1.17,22.5-7.52,22.5-32.39V44.11a3,3,0,0,0-2.32-2.93L65.82,36.92A8.28,8.28,0,0,0,62.18,36.92Z"/><path class="cls-5" d="M63.89,79.43c-5.16-1.93-15.27-7.9-15.27-25.05v-7.1L64,43.69l15.38,3.59v7.1C79.38,71.53,69.12,77.51,63.89,79.43Z"/><path class="cls-5" d="M88.7,40l-2.24,8.43a1,1,0,0,1-1.22.71h0a9.69,9.69,0,0,1-7.15-8.22h0A1,1,0,0,1,79,39.79l8.66-1.06A1,1,0,0,1,88.7,40Z"/><path class="cls-5" d="M39.3,40l2.24,8.43a1,1,0,0,0,1.22.71h0a9.69,9.69,0,0,0,7.15-8.22h0A1,1,0,0,0,49,39.79l-8.66-1.06A1,1,0,0,0,39.3,40Z"/><path class="cls-3" d="M86.91,55.44l-18.3-4.62-3.26-14a1.39,1.39,0,0,0-2.7,0l-3.26,14-18.3,4.62a1,1,0,0,0,0,2L59.39,61,63,87.36a1,1,0,0,0,2,0L68.61,61l18.3-3.62A1,1,0,0,0,86.91,55.44Z"/><path class="cls-10" d="M71.65,23.83l-.73-9.29h0L64.65,6.05a.81.81,0,0,0-1.3,0l-6.27,8.49h0l-.73,9.29Z"/><ellipse class="cls-8" cx="64" cy="23.83" rx="13.07" ry="1.26"/></g></g></svg>