<svg xmlns="http://www.w3.org/2000/svg" viewBox="0 0 128 128"><defs><style>.cls-1{opacity:0;}.cls-2{fill:#1a1a1a;}.cls-3{fill:#324652;}</style></defs><title>shield-unranked</title><g id="Layer_2" data-name="Layer 2"><g id="Display"><g class="cls-1"><rect class="cls-2" width="128" height="128"/></g><path class="cls-3" d="M63.88,91.77a1.86,1.86,0,0,1-.52-.07c-4-1.07-23.74-7.75-23.74-34.32V47.11a5,5,0,0,1,3.87-4.87L61.73,38a10,10,0,0,1,4.54,0l18.24,4.26a5,5,0,0,1,3.87,4.87V57.38c0,26.57-20,33.26-24,34.33A2.24,2.24,0,0,1,63.88,91.77Z"/><path class="cls-2" d="M64,39.72a8.6,8.6,0,0,1,1.82.2l18.24,4.26a3,3,0,0,1,2.32,2.93V57.38c0,24.87-18.1,31.22-22.5,32.39-4.35-1.17-22.26-7.52-22.26-32.39V47.11a3,3,0,0,1,2.32-2.93l18.24-4.26a8.6,8.6,0,0,1,1.82-.2m0-4a11.91,11.91,0,0,0-2.73.31L43,40.29a7,7,0,0,0-5.41,6.82V57.38c0,28,21,35.12,25.22,36.26a4.06,4.06,0,0,0,1,.13,3.93,3.93,0,0,0,1-.13c4.26-1.14,25.47-8.23,25.47-36.26V47.11A7,7,0,0,0,85,40.29L66.73,36A11.91,11.91,0,0,0,64,35.72Z"/></g></g></svg>