<svg xmlns="http://www.w3.org/2000/svg" viewBox="0 0 128 128"><defs><style>.cls-1{fill:#1a1a1a;}.cls-2{fill:#b5fff1;}.cls-3{fill:#fff;}.cls-4{opacity:0;}.cls-5{fill:#73f0e8;}.cls-6{fill:#00cccf;}</style></defs><title>shield-platinum-9</title><g id="Layer_2" data-name="Layer 2"><g id="Shield"><path class="cls-1" d="M64,118.84a5,5,0,0,1-3.54-1.46l-8.74-8.74A6,6,0,0,1,50,104.39V96.82l-2.71-2.71a5.93,5.93,0,0,1-1.76-4.24V80.56c-.2-.29-.39-.6-.59-.93l-8.36-3.45a5,5,0,0,1-2.95-3.42l-1.54-6.25L26,64a5.38,5.38,0,0,1-3.16-3.68l-6-24.27a3.09,3.09,0,0,1,.57-2.67,3.16,3.16,0,0,1,2.46-1.2,3.23,3.23,0,0,1,1.19.23l16.23,6.69a3.13,3.13,0,0,1,.56-1.25,3,3,0,0,1,2.38-1.17l.37,0,8.65,1,.21,0,11.83-2.76a3.39,3.39,0,0,1,5.37,0l11.82,2.76.2,0,8.66-1,.37,0a3,3,0,0,1,2.38,1.17,3.13,3.13,0,0,1,.56,1.25l16.23-6.69a3.23,3.23,0,0,1,1.19-.23,3.16,3.16,0,0,1,2.46,1.2,3.09,3.09,0,0,1,.57,2.67l-6,24.27A5.42,5.42,0,0,1,102,64l-6,2.47L94.4,72.76a5,5,0,0,1-3,3.42L83,79.66c-.17.28-.35.55-.52.81v9.4a5.93,5.93,0,0,1-1.76,4.24L78,96.82v7.57a6,6,0,0,1-1.75,4.25l-8.74,8.74A5,5,0,0,1,64,118.84Z"/><path class="cls-1" d="M108.1,34.22a1.13,1.13,0,0,1,1.09,1.39l-6,24.27a3.35,3.35,0,0,1-2,2.31l-6.94,2.86-1.79,7.23a3,3,0,0,1-1.77,2l-9,3.73c-.38.62-.76,1.22-1.16,1.79v10a4,4,0,0,1-1.17,2.83L76,96v8.4a4,4,0,0,1-1.17,2.83L66.12,116a3,3,0,0,1-4.24,0l-8.74-8.74A4,4,0,0,1,52,104.39V96l-3.3-3.29a4,4,0,0,1-1.17-2.83V80c-.42-.61-.83-1.25-1.22-1.92l-9-3.7a3,3,0,0,1-1.77-2l-1.79-7.23-6.94-2.86a3.35,3.35,0,0,1-2-2.31l-6-24.27a1.13,1.13,0,0,1,1.09-1.39,1.09,1.09,0,0,1,.43.08l19.6,8.08L39.3,40a1,1,0,0,1,1-1.26h.12L49,39.79a.9.9,0,0,1,.36.12l12.78-3,.47-.08v0a1.39,1.39,0,0,1,2.7,0v0l.47.08,12.78,3a.9.9,0,0,1,.36-.12l8.66-1.06h.12a1,1,0,0,1,1,1.26l-.63,2.4,19.6-8.08a1.09,1.09,0,0,1,.43-.08m0-4a5,5,0,0,0-1.95.39l-14.52,6a4.94,4.94,0,0,0-3.89-1.87c-.2,0-.41,0-.61,0l-8.53,1L67.76,33.27a5.41,5.41,0,0,0-7.52,0L49.4,35.8l-8.53-1c-.2,0-.41,0-.61,0a5,5,0,0,0-3.89,1.87l-14.51-6a5.12,5.12,0,0,0-6.93,6l6,24.27a7.39,7.39,0,0,0,4.35,5L30.36,68l1.3,5.26A7,7,0,0,0,35.79,78l7.71,3.18v8.66a8,8,0,0,0,2.34,5.66L48,97.65v6.74a8,8,0,0,0,2.34,5.66l8.74,8.74a7,7,0,0,0,9.9,0l8.74-8.74A8,8,0,0,0,80,104.39V97.65l2.13-2.12a8,8,0,0,0,2.34-5.66V81.21L92.21,78a7,7,0,0,0,4.13-4.79L97.64,68l5.08-2.1a7.39,7.39,0,0,0,4.35-5l6-24.27a5.1,5.1,0,0,0-.93-4.38,5.16,5.16,0,0,0-4-2Z"/><path class="cls-2" d="M51,62.08,31,53.86l4.56,18.42a3,3,0,0,0,1.77,2L51,80Z"/><path class="cls-2" d="M97,53.86l-20,8.22V80l13.64-5.62a3,3,0,0,0,1.77-2Z"/><path class="cls-3" d="M46.44,45.06,20.33,34.3a1.13,1.13,0,0,0-1.52,1.31l6,24.27a3.35,3.35,0,0,0,2,2.31l19.63,8.09Z"/><path class="cls-3" d="M107.67,34.3,81.56,45.06V70.28l19.63-8.09a3.35,3.35,0,0,0,2-2.31l6-24.27A1.13,1.13,0,0,0,107.67,34.3Z"/><path class="cls-3" d="M52,94v10.39a4,4,0,0,0,1.17,2.83L61.88,116a3,3,0,0,0,4.24,0l8.74-8.74A4,4,0,0,0,76,104.39V94Z"/><g class="cls-4"><rect class="cls-1" width="128" height="128"/></g><path class="cls-2" d="M47.5,75V89.87a4,4,0,0,0,1.17,2.83L61.4,105.42a3.67,3.67,0,0,0,5.2,0L79.33,92.7a4,4,0,0,0,1.17-2.83V75Z"/><path class="cls-5" d="M72,75H56v25l5.4,5.39a3.67,3.67,0,0,0,5.2,0L72,100Z"/><path class="cls-5" d="M62.18,36.92,43.94,41.18a3,3,0,0,0-2.32,2.93v15c0,24.88,17.91,31.22,22.26,32.4,4.4-1.18,22.5-7.52,22.5-32.4v-15a3,3,0,0,0-2.32-2.93L65.82,36.92A8.28,8.28,0,0,0,62.18,36.92Z"/><path class="cls-2" d="M62.18,36.92,43.94,41.18a3,3,0,0,0-2.32,2.93V54.38c0,24.87,17.91,31.22,22.26,32.39,4.4-1.17,22.5-7.52,22.5-32.39V44.11a3,3,0,0,0-2.32-2.93L65.82,36.92A8.28,8.28,0,0,0,62.18,36.92Z"/><path class="cls-3" d="M63.89,79.43c-5.16-1.93-15.27-7.9-15.27-25.05v-7.1L64,43.69l15.38,3.59v7.1C79.38,71.53,69.12,77.51,63.89,79.43Z"/><path class="cls-5" d="M88.7,40l-2.24,8.43a1,1,0,0,1-1.22.71h0a9.69,9.69,0,0,1-7.15-8.22h0A1,1,0,0,1,79,39.79l8.66-1.06A1,1,0,0,1,88.7,40Z"/><path class="cls-5" d="M39.3,40l2.24,8.43a1,1,0,0,0,1.22.71h0a9.69,9.69,0,0,0,7.15-8.22h0A1,1,0,0,0,49,39.79l-8.66-1.06A1,1,0,0,0,39.3,40Z"/><path class="cls-6" d="M86.91,55.44l-18.3-4.62-3.26-14a1.39,1.39,0,0,0-2.7,0l-3.26,14-18.3,4.62a1,1,0,0,0,0,2L59.39,61,63,87.36a1,1,0,0,0,2,0L68.61,61l18.3-3.62A1,1,0,0,0,86.91,55.44Z"/></g></g></svg>