<svg xmlns="http://www.w3.org/2000/svg" viewBox="0 0 128 128"><defs><style>.cls-1{opacity:0;}.cls-2{fill:#1a1a1a;}.cls-3{fill:#cef;}.cls-4{fill:#fff;}.cls-5{fill:#fc9504;}.cls-6{fill:#fec92b;}.cls-7{fill:#feef8e;}</style></defs><title>shield-gold-4</title><g id="Layer_2" data-name="Layer 2"><g id="Shield"><g class="cls-1"><rect class="cls-2" width="128" height="128"/></g><path class="cls-2" d="M64,108.5a5.67,5.67,0,0,1-4-1.66L47.26,94.11a5.93,5.93,0,0,1-1.76-4.24V80.56l-.6-.93-8.35-3.45a5,5,0,0,1-2.95-3.42l-1.49-6-1.95-.8a5,5,0,0,1-2.95-3.42L21.87,40.93a3,3,0,0,1,.55-2.57,3,3,0,0,1,2.36-1.15,3,3,0,0,1,1.14.22l13.8,5.69a5,5,0,0,1,3.77-3.88L61.73,35a10,10,0,0,1,4.54,0l18.24,4.26a5,5,0,0,1,3.77,3.88l13.8-5.69a3,3,0,0,1,1.14-.22,3,3,0,0,1,2.36,1.15,3,3,0,0,1,.55,2.57l-5.34,21.58a5,5,0,0,1-3,3.42l-2,.8-1.49,6a5,5,0,0,1-3,3.42L83,79.66c-.17.28-.35.55-.52.81v9.4a5.93,5.93,0,0,1-1.76,4.24L68,106.84A5.67,5.67,0,0,1,64,108.5Z"/><path class="cls-2" d="M64,36.72a8.6,8.6,0,0,1,1.82.2l18.24,4.26a3,3,0,0,1,2.32,2.93v2l16.46-6.79a1.06,1.06,0,0,1,.38-.07,1,1,0,0,1,1,1.24L98.85,62a3,3,0,0,1-1.77,2l-2.89,1.19-1.73,7a3,3,0,0,1-1.77,2l-9,3.73c-.38.62-.76,1.22-1.16,1.79v10a4,4,0,0,1-1.17,2.83L66.6,105.42a3.67,3.67,0,0,1-5.2,0L48.67,92.7a4,4,0,0,1-1.17-2.83V80c-.42-.61-.83-1.25-1.22-1.92l-9-3.7a3,3,0,0,1-1.77-2l-1.73-7-2.89-1.19a3,3,0,0,1-1.77-2L23.81,40.45a1,1,0,0,1,1-1.24,1.06,1.06,0,0,1,.38.07l16.46,6.79v-2a3,3,0,0,1,2.32-2.93l18.24-4.26a8.6,8.6,0,0,1,1.82-.2m0-4a11.91,11.91,0,0,0-2.73.31L43,37.29a7,7,0,0,0-4.42,3.21L26.69,35.58a5,5,0,0,0-5.85,1.55,5,5,0,0,0-.91,4.28L25.27,63a7,7,0,0,0,4.13,4.79l1,.42,1.25,5A7,7,0,0,0,35.79,78l7.71,3.18v8.66a7.94,7.94,0,0,0,2.34,5.65l12.73,12.73a7.68,7.68,0,0,0,10.86,0L82.16,95.53a8,8,0,0,0,2.34-5.66V81.21L92.21,78a7,7,0,0,0,4.13-4.79l1.25-5,1-.42A7,7,0,0,0,102.73,63l5.34-21.58a5,5,0,0,0-4.85-6.2,5,5,0,0,0-1.91.37L89.39,40.5A7,7,0,0,0,85,37.29L66.73,33A11.91,11.91,0,0,0,64,32.72Z"/><path class="cls-3" d="M51,62.08,31,53.86l4.56,18.42a3,3,0,0,0,1.77,2L51,80Z"/><path class="cls-3" d="M97,53.86l-20,8.22V80l13.64-5.62a3,3,0,0,0,1.77-2Z"/><path class="cls-4" d="M47.5,75V89.87a4,4,0,0,0,1.17,2.83L61.4,105.42a3.67,3.67,0,0,0,5.2,0L79.33,92.7a4,4,0,0,0,1.17-2.83V75Z"/><path class="cls-4" d="M48.38,48.85,25.16,39.28a1,1,0,0,0-1.35,1.17L29.15,62a3,3,0,0,0,1.77,2l17.46,7.2Z"/><path class="cls-4" d="M102.84,39.28,79.62,48.85V71.28l17.46-7.2a3,3,0,0,0,1.77-2l5.34-21.58A1,1,0,0,0,102.84,39.28Z"/><path class="cls-5" d="M62.18,36.92,43.94,41.18a3,3,0,0,0-2.32,2.93v15c0,24.88,17.91,31.22,22.26,32.4,4.4-1.18,22.5-7.52,22.5-32.4v-15a3,3,0,0,0-2.32-2.93L65.82,36.92A8.28,8.28,0,0,0,62.18,36.92Z"/><path class="cls-6" d="M62.18,36.92,43.94,41.18a3,3,0,0,0-2.32,2.93V54.38c0,24.87,17.91,31.22,22.26,32.39,4.4-1.17,22.5-7.52,22.5-32.39V44.11a3,3,0,0,0-2.32-2.93L65.82,36.92A8.28,8.28,0,0,0,62.18,36.92Z"/><path class="cls-7" d="M63.89,79.43c-5.16-1.93-15.27-7.9-15.27-25.05v-7.1L64,43.69l15.38,3.59v7.1C79.38,71.53,69.12,77.51,63.89,79.43Z"/></g></g></svg>